<svg xmlns="http://www.w3.org/2000/svg" width="286" height="286" viewBox="0 0 75.670833 75.670833"><defs><clipPath id="a" clipPathUnits="userSpaceOnUse"><path d="M28.27 28.27H47.4V47.4H28.27zm11.408 8.276a.392.392 0 0 0-.554-.554l-1.289 1.29-1.29-1.29a.392.392 0 0 0-.553.555l1.29 1.288-1.29 1.29a.392.392 0 0 0 .555.554l1.288-1.29 1.29 1.289a.392.392 0 0 0 .554-.554l-1.29-1.289z" class="powerclip" style="display:block;stroke-width:.0122343"/></clipPath></defs><path d="M37.835 1.323a36.5 36.5 0 0 0-25.262 10.174l21.543 21.542a6.1 6.1 0 0 1 3.72-1.289 6.1 6.1 0 0 1 3.723 1.286l21.544-21.543a36.5 36.5 0 0 0-25.268-10.17M64.18 12.569 42.635 34.112a6.1 6.1 0 0 1 1.286 3.723 6.1 6.1 0 0 1-1.282 3.718c3.158 3.116 8.07 8.015 12.524 12.476 4.127 4.132 7.624 7.646 8.969 9.015a36.5 36.5 0 0 0 10.216-25.209A36.5 36.5 0 0 0 64.179 12.57m-52.681.004A36.5 36.5 0 0 0 1.323 37.835a36.5 36.5 0 0 0 10.223 25.216l21.502-21.503a6.1 6.1 0 0 1-1.298-3.713 6.1 6.1 0 0 1 1.29-3.72Zm22.625 30.05L12.621 64.127a36.5 36.5 0 0 0 25.214 10.222 36.5 36.5 0 0 0 25.22-10.228 2331 2331 0 0 0-8.967-9.016 2729 2729 0 0 0-12.523-12.473 6.1 6.1 0 0 1-3.73 1.29 6.1 6.1 0 0 1-3.712-1.297" style="opacity:1;fill:#161616;fill-opacity:.458824;stroke-width:.40994;stroke-linecap:round;stroke-linejoin:round;stroke-miterlimit:10"/><path d="M42.4 37.835a4.565 4.564 0 0 1-4.565 4.565 4.565 4.564 0 0 1-4.565-4.565 4.565 4.564 0 0 1 4.565-4.564 4.565 4.564 0 0 1 4.566 4.564" clip-path="url(#a)" style="opacity:1;fill:#161616;fill-opacity:.458824;stroke:none;stroke-width:1.3204;stroke-dasharray:none;stroke-opacity:1;paint-order:stroke fill markers"/></svg>