<svg xmlns="http://www.w3.org/2000/svg" width="22.344828" height="24" fill="none" viewBox="0 0 22.344828 24"><g fill="#fff"><path d="M3.778 19.64a.74.74 0 0 0-.747.747c0 .397.35.747.747.747h14.32V19.64z"/><path fill-rule="evenodd" d="M20.718 22.477V3.005h1.627V24H3.198C1.437 24 0 22.65 0 20.995V3.005C0 1.35 1.437 0 3.198 0h15.949v17.948H3.987c-1.343 0-2.41 1.004-2.41 2.264 0 1.261 1.112 2.265 2.41 2.265zm-5.144-8.887-3.066-3.067a.5.5 0 0 0-.218-.128c.52-.73.83-1.627.83-2.594a4.491 4.491 0 1 0-4.49 4.492c.967 0 1.862-.31 2.596-.83a.5.5 0 0 0 .126.217l3.067 3.066c.246.244.702.185 1.02-.134.32-.319.379-.776.135-1.022M8.63 10.66a2.86 2.86 0 0 1 0-5.716 2.86 2.86 0 0 1 0 5.716" clip-rule="evenodd"/></g></svg>